# xmcd
#
# Track frame offsets:
#	150
#	11019
#	25364
#	46255
#	58308
#	73494
#	92746
#	114199
#	128112
#	146672
#	163108
#
# Disc length: 2371 seconds
#
# Revision: 1
# Processed by: cddbd v1.4b41PL3 Copyright (c) Steve Scherf et al.
# Submitted via: audiograbber 1.80
#
DISCID=9e09410b
DTITLE=David Alan Mors - Where I'm Free
DYEAR=1900
DGENRE=
TTITLE0=Full Moon Full of Love
TTITLE1=Keep Your Blue Jeans On
TTITLE2=Make Love Stay
TTITLE3=We Are All Bound
TTITLE4=Warm Breezy Summers
TTITLE5=Someone to  Kiss
TTITLE6=Long Long Time
TTITLE7=Chances Are
TTITLE8=Momma Sang
TTITLE9=Corn Flower Blue
TTITLE10=Where I'm Free
EXTD=www.lgcma.com
EXTT0=
EXTT1=
EXTT2=
EXTT3=
EXTT4=
EXTT5=
EXTT6=
EXTT7=
EXTT8=
EXTT9=
EXTT10=
PLAYORDER=
